<?xml version="1.0" standalone="no"?>
<!DOCTYPE svg PUBLIC "-//W3C//DTD SVG 20010904//EN"
 "http://www.w3.org/TR/2001/REC-SVG-20010904/DTD/svg10.dtd">
<svg version="1.0" xmlns="http://www.w3.org/2000/svg"
 width="700.000000pt" height="700.000000pt" viewBox="0 0 700.000000 700.000000"
 preserveAspectRatio="xMidYMid meet">
<metadata>
Created by potrace 1.11, written by Peter Selinger 2001-2013
</metadata>
<g transform="translate(0.000000,700.000000) scale(0.100000,-0.100000)"
fill="#000000" stroke="none">
<path d="M3245 6969 c-44 -17 -120 -45 -170 -64 -303 -111 -907 -340 -943
-357 -53 -25 -88 -82 -96 -158 -4 -30 -11 -82 -16 -115 -5 -33 -12 -80 -15
-105 -5 -39 -11 -76 -30 -200 -2 -14 -6 -47 -10 -75 -4 -27 -8 -66 -11 -85 -2
-19 -9 -62 -14 -95 -19 -123 -23 -150 -23 -162 0 -9 -89 -12 -376 -12 -207 0
-389 -3 -404 -6 -130 -26 -154 -200 -37 -266 19 -11 92 -15 315 -19 l291 -5
-78 -300 c-43 -165 -80 -309 -82 -320 -2 -11 -21 -82 -41 -158 -20 -76 -38
-146 -40 -155 -2 -9 -13 -51 -24 -92 -11 -41 -21 -78 -21 -82 0 -14 -31 -9
-288 42 -138 28 -261 49 -274 46 -54 -10 -107 -54 -121 -101 -4 -11 -9 -40
-12 -65 -3 -25 -7 -61 -10 -80 -3 -19 -7 -54 -10 -77 -3 -24 -7 -62 -10 -85
-6 -46 -11 -90 -19 -153 -3 -22 -8 -60 -11 -85 -2 -25 -7 -61 -10 -80 -7 -44
-13 -100 -20 -170 -4 -30 -8 -62 -10 -70 -2 -8 -7 -43 -10 -78 -4 -35 -8 -72
-10 -82 -7 -36 -18 -155 -18 -187 1 -87 51 -128 191 -159 52 -11 256 -65 260
-68 3 -4 -29 -132 -158 -626 -121 -463 -150 -580 -150 -603 0 -37 37 -100 73
-124 18 -11 84 -48 147 -81 174 -91 511 -269 780 -412 80 -42 195 -103 255
-135 61 -32 146 -77 190 -100 75 -40 310 -164 490 -260 44 -23 130 -68 190
-100 61 -32 137 -72 170 -90 277 -148 279 -149 330 -149 44 0 71 12 215 88
209 112 298 159 435 231 61 32 171 90 245 130 74 39 142 75 150 78 8 4 38 20
65 35 28 15 113 61 190 101 77 41 167 89 200 106 33 18 110 58 170 90 107 56
206 109 350 185 39 21 111 59 160 85 369 195 366 193 394 218 33 30 50 75 46
120 -2 20 -23 108 -45 194 -23 87 -43 165 -45 173 -2 8 -20 78 -40 155 -20 77
-39 147 -40 155 -2 8 -11 42 -20 75 -9 33 -18 67 -20 76 -2 8 -24 97 -50 197
-26 101 -45 185 -43 188 3 3 86 25 184 50 101 26 191 54 207 66 35 25 65 88
61 126 -2 15 -6 52 -9 82 -3 30 -8 66 -10 80 -3 14 -7 46 -10 73 -3 26 -7 60
-9 75 -2 15 -7 54 -11 87 -4 33 -8 74 -11 90 -3 25 -61 486 -80 645 -9 76 -39
126 -90 151 l-45 21 -137 -25 c-75 -15 -148 -29 -162 -32 -74 -15 -190 -37
-222 -42 -36 -5 -37 -3 -47 34 -20 77 -43 168 -46 183 -2 8 -15 58 -28 110
-36 133 -76 289 -142 543 -31 120 -58 224 -62 232 -4 13 34 15 278 15 261 0
286 2 324 20 110 53 104 207 -10 258 -22 10 -117 13 -417 13 -359 0 -388 1
-389 17 0 9 -2 26 -3 37 -5 39 -18 130 -21 145 -1 8 -6 40 -9 70 -4 30 -11 80
-16 110 -14 85 -29 191 -35 235 -7 58 -34 247 -39 270 -9 43 -28 79 -52 100
-30 26 -1191 462 -1249 469 -29 4 -62 -3 -120 -25z m675 -483 c516 -193 471
-167 483 -277 4 -30 11 -81 16 -114 6 -33 13 -80 16 -105 3 -25 10 -72 15
-105 5 -33 12 -85 15 -115 3 -30 8 -62 10 -70 3 -8 7 -35 10 -60 3 -25 8 -57
11 -72 l5 -27 -1146 1 -1146 0 6 37 c3 20 7 47 10 61 2 14 7 48 10 75 3 28 8
57 10 65 2 8 6 42 10 75 3 33 8 67 10 75 2 8 6 38 10 65 3 28 8 57 10 65 2 8
6 40 10 71 3 31 7 66 10 77 2 11 6 37 9 58 4 21 10 41 14 45 4 3 138 55 297
114 160 59 304 113 320 120 17 7 115 44 220 83 l189 70 51 -19 c27 -11 259
-97 515 -193z m789 -1273 c5 -21 19 -74 31 -118 38 -145 91 -350 95 -366 2 -8
15 -61 30 -118 15 -56 25 -104 23 -106 -2 -2 -116 64 -253 147 -138 83 -263
159 -280 168 -16 9 -64 38 -106 64 -42 25 -92 52 -110 60 -69 28 -91 18 -445
-195 -211 -126 -341 -199 -351 -195 -8 4 -122 70 -252 149 -129 78 -240 144
-246 146 -5 2 -39 23 -75 46 -57 37 -90 51 -138 61 -33 6 -111 -35 -449 -238
-199 -120 -364 -218 -366 -218 -3 0 172 687 188 738 4 9 282 12 1349 12 l1345
0 10 -37z m-1938 -659 c79 -48 155 -93 169 -100 14 -8 79 -47 145 -87 l120
-73 1 -351 c1 -194 -2 -356 -5 -360 -3 -5 -125 -81 -271 -168 -146 -87 -274
-164 -285 -171 -18 -11 -29 -7 -95 33 -41 25 -91 55 -111 67 -20 12 -117 70
-217 129 l-180 108 1 357 2 356 285 172 c157 95 288 173 291 173 3 1 71 -38
150 -85z m1605 -87 l289 -173 0 -352 c1 -288 -2 -355 -13 -364 -29 -24 -557
-338 -568 -338 -7 0 -141 77 -298 171 l-286 172 0 356 1 356 287 172 c158 94
290 172 293 172 4 1 137 -77 295 -172z m-2602 -1044 c15 -25 105 -84 382 -250
200 -120 375 -225 391 -233 15 -8 53 -15 83 -15 51 0 64 6 180 77 69 42 127
75 129 73 3 -3 -29 -60 -148 -265 -11 -19 -32 -58 -47 -86 -15 -28 -35 -62
-45 -75 l-18 -24 -264 0 -265 -1 -38 -25 c-51 -34 -49 -31 -189 -384 -48 -121
-96 -239 -106 -262 -11 -23 -19 -46 -19 -51 0 -4 -9 -26 -19 -48 -40 -82 -35
-151 12 -203 12 -13 162 -93 332 -179 279 -140 315 -155 359 -154 46 1 63 10
238 126 103 70 191 126 194 126 4 0 47 -27 96 -60 49 -33 93 -60 97 -60 5 0
11 -3 13 -7 5 -12 160 -111 188 -121 14 -4 35 -7 48 -6 12 1 28 2 36 3 8 0 97
55 197 122 100 66 188 123 194 126 7 2 93 -49 191 -114 203 -135 215 -141 266
-137 35 3 588 271 651 316 36 26 64 84 61 128 -2 35 -268 712 -307 783 -12 21
-37 48 -56 60 -34 21 -46 21 -299 22 l-264 0 -29 40 c-15 22 -28 43 -29 47 0
3 -23 46 -51 95 -29 48 -65 113 -82 143 -17 30 -41 72 -54 93 -13 20 -21 37
-18 37 3 0 62 -34 132 -76 142 -84 195 -99 251 -70 17 9 141 82 274 162 134
81 257 154 273 164 17 9 60 36 98 58 37 23 71 42 75 42 15 0 69 64 80 95 7 20
11 149 11 390 0 198 1 367 1 375 1 8 17 -43 36 -115 18 -71 48 -182 65 -245
17 -63 32 -122 34 -130 2 -8 13 -53 25 -100 12 -47 23 -92 25 -100 2 -8 18
-69 35 -134 18 -66 33 -127 35 -135 2 -9 13 -50 24 -91 11 -41 38 -147 61
-235 49 -192 100 -388 141 -545 79 -302 121 -466 124 -480 2 -8 20 -76 39
-150 20 -74 41 -154 47 -178 7 -25 8 -47 3 -51 -5 -5 -63 -36 -129 -71 -66
-34 -142 -75 -170 -90 -27 -15 -88 -47 -135 -72 -157 -83 -274 -145 -370 -195
-52 -28 -129 -68 -170 -90 -41 -22 -124 -66 -185 -98 -60 -32 -137 -72 -170
-90 -57 -31 -110 -59 -350 -185 -55 -29 -127 -67 -160 -85 -33 -18 -118 -63
-190 -101 -71 -37 -161 -85 -200 -105 l-70 -38 -120 63 c-66 35 -160 85 -210
111 -49 26 -133 70 -185 97 -52 28 -117 63 -145 78 -27 15 -108 58 -180 95
-71 37 -148 78 -170 90 -22 12 -94 51 -160 85 -265 139 -312 163 -350 185 -22
12 -98 53 -170 90 -71 37 -161 85 -200 105 -38 21 -104 56 -145 78 -41 22
-115 61 -165 87 -49 26 -94 51 -99 55 -9 9 11 97 91 395 19 72 36 137 38 145
8 36 117 458 126 486 5 17 11 40 13 50 6 28 155 604 166 639 5 17 11 41 14 55
2 14 18 77 35 140 67 252 201 774 203 789 1 9 5 -162 8 -379 5 -368 6 -397 24
-427z m-607 454 c90 -19 165 -36 168 -39 4 -3 -3 -39 -13 -79 -53 -198 -94
-356 -126 -479 -50 -197 -78 -305 -80 -307 -1 -1 -51 10 -111 25 l-110 27 1
30 c1 32 5 61 34 290 11 83 22 174 25 202 2 29 7 65 9 80 5 31 15 111 21 158
9 75 16 125 18 125 1 0 75 -15 164 -33z m4543 25 c0 -8 17 -152 24 -207 3 -16
8 -57 12 -90 3 -33 8 -68 10 -79 2 -10 6 -44 9 -75 4 -31 8 -63 10 -71 2 -8 7
-44 10 -80 4 -36 13 -110 20 -165 7 -55 10 -103 7 -106 -8 -7 -215 -59 -219
-55 -5 5 -223 848 -223 862 0 6 6 11 13 11 6 0 39 6 72 12 33 7 74 15 90 18
17 2 57 11 90 18 76 17 75 16 75 7z m-2314 -767 c15 -27 82 -147 150 -265 67
-118 125 -222 128 -230 6 -13 -34 -15 -319 -15 -179 0 -325 3 -325 6 0 19 324
569 330 562 5 -4 21 -30 36 -58z m1028 -806 c1 -2 48 -118 104 -257 l101 -253
-195 -96 -194 -96 -184 122 c-194 129 -237 150 -288 143 -18 -3 -113 -59 -222
-132 l-191 -127 -189 126 -189 126 -61 0 -61 0 -194 -129 -193 -130 -193 97
-193 96 19 53 c11 29 26 67 33 83 8 17 44 107 82 202 66 167 69 172 99 175 44
4 2105 1 2109 -3z"/>
<path d="M2715 4070 c-29 -12 -71 -60 -82 -95 -12 -37 -8 -201 6 -235 32 -76
109 -109 186 -80 71 27 93 81 91 216 -2 84 -6 107 -24 136 -35 57 -117 84
-177 58z"/>
<path d="M3873 4064 c-64 -32 -83 -78 -83 -203 1 -149 51 -216 158 -208 59 4
92 28 121 87 26 54 21 214 -9 268 -37 66 -118 90 -187 56z"/>
</g>
</svg>
